<svg width="193" height="121" viewBox="0 0 193 121" fill="none" xmlns="http://www.w3.org/2000/svg">
<path d="M77.1091 25.488C77.1091 31.728 72.3571 36.336 64.1491 36.336C56.3731 36.336 50.2771 32.736 49.7971 25.104H61.1251C61.3171 27.6 62.6611 28.032 63.7171 28.032C64.7731 28.032 65.7811 27.552 65.7811 26.352C65.7331 21.744 49.7011 23.424 49.8931 11.808C49.8931 4.992 55.6531 1.44 62.9011 1.44C71.1091 1.44 76.3891 5.376 76.6771 12.432H65.2051C65.1091 10.368 64.0051 9.744 62.8531 9.744C61.9891 9.744 61.3171 10.32 61.3171 11.472C61.3171 15.744 77.1091 15.024 77.1091 25.488ZM80.8531 36V0.48H91.5091V13.056C93.0451 10.704 95.7331 8.736 99.8131 8.736C106.053 8.736 109.701 13.296 109.701 20.304V36H99.0931V21.648C99.0931 19.056 97.6051 17.472 95.3011 17.472C92.9491 17.472 91.5091 19.056 91.5091 21.648V36H80.8531ZM112.882 22.464C112.882 13.728 117.826 8.592 124.066 8.592C127.666 8.592 130.258 10.176 131.554 12.624V8.928H142.162V36H131.554V32.304C130.258 34.752 127.666 36.336 124.066 36.336C117.826 36.336 112.882 31.2 112.882 22.464ZM131.554 22.464C131.554 19.488 129.826 17.904 127.618 17.904C125.41 17.904 123.682 19.488 123.682 22.464C123.682 25.44 125.41 27.024 127.618 27.024C129.826 27.024 131.554 25.44 131.554 22.464ZM18.6254 85.824C18.6254 84.096 17.5694 82.944 15.5534 82.944H11.3294V88.704H15.5534C17.5694 88.704 18.6254 87.84 18.6254 85.824ZM0.673438 74.016H16.5134C25.0574 74.016 29.4254 78.912 29.4254 85.152C29.4254 89.616 26.9294 93.408 22.0814 94.992L29.4734 108H17.7614L11.3774 95.808H11.3294V108H0.673438V74.016ZM45.2137 88.944C43.4377 88.944 42.2377 89.808 41.9017 91.68H48.2377C48.2377 89.808 46.7977 88.944 45.2137 88.944ZM58.4617 98.256C57.3097 104.016 52.0297 108.336 45.2137 108.336C37.1017 108.336 31.3897 103.104 31.3897 94.464C31.3897 85.824 37.1017 80.592 45.2137 80.592C53.3257 80.592 59.0377 85.728 59.0377 94.224C59.0377 94.896 58.9897 95.664 58.8937 96.336H41.8057C41.9497 99.072 43.2457 99.84 44.6857 99.84C46.0777 99.84 46.7977 99.072 47.1817 98.256H58.4617ZM60.9678 94.464C60.9678 85.824 66.6798 80.592 74.7918 80.592C81.7518 80.592 86.9838 84.72 88.2798 91.824H76.9998C76.6158 90.528 75.8958 89.712 74.5518 89.712C72.9198 89.712 71.7678 91.2 71.7678 94.464C71.7678 97.728 72.9198 99.216 74.5518 99.216C75.8958 99.216 76.6158 98.4 76.9998 97.104H88.2798C86.9838 104.208 81.7518 108.336 74.7918 108.336C66.6798 108.336 60.9678 103.104 60.9678 94.464ZM91.6578 108V80.928H102.314V108H91.6578ZM97.0338 78.768C93.2418 78.768 90.8898 76.464 90.8898 73.536C90.8898 70.56 93.2418 68.208 97.0338 68.208C100.778 68.208 103.13 70.56 103.13 73.536C103.13 76.464 100.778 78.768 97.0338 78.768ZM117.783 84.624C119.079 82.176 121.623 80.592 125.223 80.592C131.463 80.592 136.407 85.728 136.407 94.464C136.407 103.2 131.463 108.336 125.223 108.336C121.623 108.336 119.079 106.752 117.783 104.304V120.96H107.127V80.928H117.783V84.624ZM125.607 94.464C125.607 91.488 123.879 89.904 121.671 89.904C119.463 89.904 117.735 91.488 117.735 94.464C117.735 97.44 119.463 99.024 121.671 99.024C123.879 99.024 125.607 97.44 125.607 94.464ZM152.136 88.944C150.36 88.944 149.16 89.808 148.824 91.68H155.16C155.16 89.808 153.72 88.944 152.136 88.944ZM165.384 98.256C164.232 104.016 158.952 108.336 152.136 108.336C144.024 108.336 138.312 103.104 138.312 94.464C138.312 85.824 144.024 80.592 152.136 80.592C160.248 80.592 165.96 85.728 165.96 94.224C165.96 94.896 165.912 95.664 165.816 96.336H148.728C148.872 99.072 150.168 99.84 151.608 99.84C153 99.84 153.72 99.072 154.104 98.256H165.384ZM192.898 99.888C192.898 104.688 188.578 108.336 181.378 108.336C173.554 108.336 168.418 104.16 167.938 98.64H178.162C178.402 100.272 179.698 100.992 181.33 100.992C182.434 100.992 183.106 100.416 183.106 99.744C183.106 96.192 169.138 99.456 169.138 89.52C169.138 84.624 173.026 80.592 180.658 80.592C188.386 80.592 192.178 84.96 192.946 90.288H183.49C183.202 88.848 182.146 87.984 180.418 87.984C179.362 87.984 178.738 88.416 178.738 89.232C178.738 92.592 192.898 89.472 192.898 99.888Z" fill="#F3F2F0"/>
</svg>
